<svg width="125" height="35" viewBox="0 0 125 35" fill="none" xmlns="http://www.w3.org/2000/svg">
<circle cx="17.5" cy="17.5" r="17.5" fill="#3210DE"/>
<path fill-rule="evenodd" clip-rule="evenodd" d="M28.2861 15.9676V25.75H25.5252V24.2384H9.24148V25.75H6.48059V15.9676H5.52942V14.464H7.85235L9.14694 11.1275C9.52895 10.1432 10.1656 9.25 11.412 9.25H23.8351C25.0814 9.25 25.7991 10.1257 26.1001 11.1259L27.1014 14.4624H29.2353V15.966H28.2861V15.9676ZM13.2487 21.2199H21.4041V22.813H13.2487V21.2199ZM7.40474 17.5096C9.48265 17.5639 10.7541 18.2846 11.0801 19.7882H7.40474V17.5096ZM27.0995 17.5096C25.0216 17.5639 23.7502 18.2846 23.4241 19.7882H27.0995V17.5096ZM8.84404 14.4624H25.9226L25.1914 11.6644C24.9907 10.8974 24.4139 10.2343 23.4646 10.2343H11.6532C10.7039 10.2343 10.2177 10.915 9.9264 11.6644L8.84404 14.4624Z" fill="white" stroke="white" stroke-width="0.561523"/>
<path d="M46.26 5.27L43.04 11.472V15H41.444V11.472L38.21 5.27H39.988L42.242 10.044L44.496 5.27H46.26ZM46.9946 11.108C46.9946 10.3333 47.1532 9.64733 47.4706 9.05C47.7972 8.45267 48.2359 7.99067 48.7866 7.664C49.3466 7.328 49.9626 7.16 50.6346 7.16C51.2412 7.16 51.7686 7.28133 52.2166 7.524C52.6739 7.75733 53.0379 8.05133 53.3086 8.406V7.286H54.9186V15H53.3086V13.852C53.0379 14.216 52.6692 14.5193 52.2026 14.762C51.7359 15.0047 51.2039 15.126 50.6066 15.126C49.9439 15.126 49.3372 14.958 48.7866 14.622C48.2359 14.2767 47.7972 13.8007 47.4706 13.194C47.1532 12.578 46.9946 11.8827 46.9946 11.108ZM53.3086 11.136C53.3086 10.604 53.1966 10.142 52.9726 9.75C52.7579 9.358 52.4732 9.05933 52.1186 8.854C51.7639 8.64867 51.3812 8.546 50.9706 8.546C50.5599 8.546 50.1772 8.64867 49.8226 8.854C49.4679 9.05 49.1786 9.344 48.9546 9.736C48.7399 10.1187 48.6326 10.576 48.6326 11.108C48.6326 11.64 48.7399 12.1067 48.9546 12.508C49.1786 12.9093 49.4679 13.2173 49.8226 13.432C50.1866 13.6373 50.5692 13.74 50.9706 13.74C51.3812 13.74 51.7639 13.6373 52.1186 13.432C52.4732 13.2267 52.7579 12.928 52.9726 12.536C53.1966 12.1347 53.3086 11.668 53.3086 11.136ZM58.6108 4.64V15H57.0148V4.64H58.6108ZM62.3023 4.64V15H60.7063V4.64H62.3023ZM63.8657 11.108C63.8657 10.3333 64.0243 9.64733 64.3417 9.05C64.6683 8.45267 65.107 7.99067 65.6577 7.664C66.2177 7.328 66.8337 7.16 67.5057 7.16C68.1123 7.16 68.6397 7.28133 69.0877 7.524C69.545 7.75733 69.909 8.05133 70.1797 8.406V7.286H71.7897V15H70.1797V13.852C69.909 14.216 69.5403 14.5193 69.0737 14.762C68.607 15.0047 68.075 15.126 67.4777 15.126C66.815 15.126 66.2083 14.958 65.6577 14.622C65.107 14.2767 64.6683 13.8007 64.3417 13.194C64.0243 12.578 63.8657 11.8827 63.8657 11.108ZM70.1797 11.136C70.1797 10.604 70.0677 10.142 69.8437 9.75C69.629 9.358 69.3443 9.05933 68.9897 8.854C68.635 8.64867 68.2523 8.546 67.8417 8.546C67.431 8.546 67.0483 8.64867 66.6937 8.854C66.339 9.05 66.0497 9.344 65.8257 9.736C65.611 10.1187 65.5037 10.576 65.5037 11.108C65.5037 11.64 65.611 12.1067 65.8257 12.508C66.0497 12.9093 66.339 13.2173 66.6937 13.432C67.0577 13.6373 67.4403 13.74 67.8417 13.74C68.2523 13.74 68.635 13.6373 68.9897 13.432C69.3443 13.2267 69.629 12.928 69.8437 12.536C70.0677 12.1347 70.1797 11.668 70.1797 11.136ZM77.8759 7.16C78.4639 7.16 78.9866 7.286 79.4439 7.538C79.9106 7.79 80.2746 8.16333 80.5359 8.658C80.8066 9.15267 80.9419 9.75 80.9419 10.45V15H79.3599V10.688C79.3599 9.99733 79.1873 9.47 78.8419 9.106C78.4966 8.73267 78.0253 8.546 77.4279 8.546C76.8306 8.546 76.3546 8.73267 75.9999 9.106C75.6546 9.47 75.4819 9.99733 75.4819 10.688V15H73.8859V4.64H75.4819V8.182C75.7526 7.85533 76.0933 7.60333 76.5039 7.426C76.9239 7.24867 77.3813 7.16 77.8759 7.16Z" fill="black"/>
<path d="M88.0317 15L85.7917 11.108H84.5737V15H82.9777V5.27H86.3377C87.0844 5.27 87.7144 5.40067 88.2277 5.662C88.7504 5.92333 89.1377 6.27333 89.3897 6.712C89.6511 7.15067 89.7817 7.64067 89.7817 8.182C89.7817 8.81667 89.5951 9.39533 89.2217 9.918C88.8577 10.4313 88.2931 10.7813 87.5277 10.968L89.9357 15H88.0317ZM84.5737 9.834H86.3377C86.9351 9.834 87.3831 9.68467 87.6817 9.386C87.9897 9.08733 88.1437 8.686 88.1437 8.182C88.1437 7.678 87.9944 7.286 87.6957 7.006C87.3971 6.71667 86.9444 6.572 86.3377 6.572H84.5737V9.834ZM92.6354 6.264C92.3461 6.264 92.1034 6.166 91.9074 5.97C91.7114 5.774 91.6134 5.53133 91.6134 5.242C91.6134 4.95267 91.7114 4.71 91.9074 4.514C92.1034 4.318 92.3461 4.22 92.6354 4.22C92.9154 4.22 93.1534 4.318 93.3494 4.514C93.5454 4.71 93.6434 4.95267 93.6434 5.242C93.6434 5.53133 93.5454 5.774 93.3494 5.97C93.1534 6.166 92.9154 6.264 92.6354 6.264ZM93.4194 7.286V15H91.8234V7.286H93.4194ZM94.9828 11.108C94.9828 10.3333 95.1415 9.64733 95.4588 9.05C95.7855 8.45267 96.2242 7.99067 96.7748 7.664C97.3348 7.328 97.9555 7.16 98.6368 7.16C99.1408 7.16 99.6355 7.272 100.121 7.496C100.616 7.71067 101.008 8 101.297 8.364V4.64H102.907V15H101.297V13.838C101.036 14.2113 100.672 14.5193 100.205 14.762C99.7475 15.0047 99.2202 15.126 98.6228 15.126C97.9508 15.126 97.3348 14.958 96.7748 14.622C96.2242 14.2767 95.7855 13.8007 95.4588 13.194C95.1415 12.578 94.9828 11.8827 94.9828 11.108ZM101.297 11.136C101.297 10.604 101.185 10.142 100.961 9.75C100.746 9.358 100.462 9.05933 100.107 8.854C99.7522 8.64867 99.3695 8.546 98.9588 8.546C98.5482 8.546 98.1655 8.64867 97.8108 8.854C97.4562 9.05 97.1668 9.344 96.9428 9.736C96.7282 10.1187 96.6208 10.576 96.6208 11.108C96.6208 11.64 96.7282 12.1067 96.9428 12.508C97.1668 12.9093 97.4562 13.2173 97.8108 13.432C98.1748 13.6373 98.5575 13.74 98.9588 13.74C99.3695 13.74 99.7522 13.6373 100.107 13.432C100.462 13.2267 100.746 12.928 100.961 12.536C101.185 12.1347 101.297 11.668 101.297 11.136ZM112.073 10.954C112.073 11.2433 112.054 11.5047 112.017 11.738H106.123C106.17 12.354 106.398 12.8487 106.809 13.222C107.22 13.5953 107.724 13.782 108.321 13.782C109.18 13.782 109.786 13.4227 110.141 12.704H111.863C111.63 13.4133 111.205 13.9967 110.589 14.454C109.982 14.902 109.226 15.126 108.321 15.126C107.584 15.126 106.921 14.9627 106.333 14.636C105.754 14.3 105.297 13.8333 104.961 13.236C104.634 12.6293 104.471 11.9293 104.471 11.136C104.471 10.3427 104.63 9.64733 104.947 9.05C105.274 8.44333 105.726 7.97667 106.305 7.65C106.893 7.32333 107.565 7.16 108.321 7.16C109.049 7.16 109.698 7.31867 110.267 7.636C110.836 7.95333 111.28 8.40133 111.597 8.98C111.914 9.54933 112.073 10.2073 112.073 10.954ZM110.407 10.45C110.398 9.862 110.188 9.39067 109.777 9.036C109.366 8.68133 108.858 8.504 108.251 8.504C107.7 8.504 107.229 8.68133 106.837 9.036C106.445 9.38133 106.212 9.85267 106.137 10.45H110.407Z" fill="#3210DE"/>
<path d="M41.3871 23.31C41.5804 23.0433 41.8437 22.8267 42.1771 22.66C42.5171 22.4867 42.8937 22.4 43.3071 22.4C43.7937 22.4 44.2337 22.5167 44.6271 22.75C45.0204 22.9833 45.3304 23.3167 45.5571 23.75C45.7837 24.1767 45.8971 24.6667 45.8971 25.22C45.8971 25.7733 45.7837 26.27 45.5571 26.71C45.3304 27.1433 45.0171 27.4833 44.6171 27.73C44.2237 27.97 43.7871 28.09 43.3071 28.09C42.8804 28.09 42.5004 28.0067 42.1671 27.84C41.8404 27.6733 41.5804 27.46 41.3871 27.2V28H40.2471V20.6H41.3871V23.31ZM44.7371 25.22C44.7371 24.84 44.6571 24.5133 44.4971 24.24C44.3437 23.96 44.1371 23.75 43.8771 23.61C43.6237 23.4633 43.3504 23.39 43.0571 23.39C42.7704 23.39 42.4971 23.4633 42.2371 23.61C41.9837 23.7567 41.7771 23.97 41.6171 24.25C41.4637 24.53 41.3871 24.86 41.3871 25.24C41.3871 25.62 41.4637 25.9533 41.6171 26.24C41.7771 26.52 41.9837 26.7333 42.2371 26.88C42.4971 27.0267 42.7704 27.1 43.0571 27.1C43.3504 27.1 43.6237 27.0267 43.8771 26.88C44.1371 26.7267 44.3437 26.5067 44.4971 26.22C44.6571 25.9333 44.7371 25.6 44.7371 25.22ZM51.9844 22.49L48.6044 30.59H47.4244L48.5444 27.91L46.3744 22.49H47.6444L49.1944 26.69L50.8044 22.49H51.9844ZM60.5724 21.54C61.3324 21.54 61.989 21.68 62.5424 21.96C63.0957 22.24 63.5157 22.6333 63.8024 23.14C64.0957 23.64 64.2424 24.2233 64.2424 24.89C64.2424 25.4233 64.149 25.9333 63.9624 26.42C63.7824 26.9067 63.519 27.3033 63.1724 27.61C62.8324 27.9167 62.4291 28.07 61.9624 28.07C61.6224 28.07 61.3557 27.9967 61.1624 27.85C60.969 27.6967 60.849 27.4833 60.8024 27.21C60.5957 27.4767 60.3357 27.6867 60.0224 27.84C59.709 27.9933 59.3824 28.07 59.0424 28.07C58.529 28.07 58.1257 27.9167 57.8324 27.61C57.5457 27.2967 57.4024 26.8733 57.4024 26.34C57.4024 25.8333 57.5057 25.36 57.7124 24.92C57.9257 24.48 58.2224 24.13 58.6024 23.87C58.9824 23.6033 59.409 23.47 59.8824 23.47C60.4624 23.47 60.869 23.6667 61.1024 24.06L61.1924 23.56H62.1824L61.6824 26.42C61.6624 26.56 61.6524 26.6833 61.6524 26.79C61.6524 26.9633 61.6857 27.0933 61.7524 27.18C61.8257 27.2667 61.9524 27.31 62.1324 27.31C62.3857 27.31 62.6024 27.1867 62.7824 26.94C62.9624 26.6867 63.0957 26.3767 63.1824 26.01C63.2757 25.6433 63.3224 25.2867 63.3224 24.94C63.3224 24.0933 63.0757 23.4467 62.5824 23C62.089 22.5533 61.3724 22.33 60.4324 22.33C59.6457 22.33 58.939 22.5167 58.3124 22.89C57.6924 23.2633 57.2057 23.7767 56.8524 24.43C56.499 25.0833 56.3224 25.81 56.3224 26.61C56.3224 27.4633 56.5757 28.1133 57.0824 28.56C57.589 29.0067 58.3124 29.23 59.2524 29.23C59.8857 29.23 60.439 29.1133 60.9124 28.88L61.0624 29.64C60.4557 29.9 59.7757 30.03 59.0224 30.03C58.2957 30.03 57.659 29.8933 57.1124 29.62C56.5657 29.3467 56.1424 28.9567 55.8424 28.45C55.5424 27.95 55.3924 27.3667 55.3924 26.7C55.3924 25.7467 55.6124 24.8767 56.0524 24.09C56.499 23.3033 57.1157 22.6833 57.9024 22.23C58.689 21.77 59.579 21.54 60.5724 21.54ZM59.3924 27.19C59.6724 27.19 59.9257 27.11 60.1524 26.95C60.3857 26.7833 60.569 26.5667 60.7024 26.3C60.8357 26.0267 60.9024 25.7367 60.9024 25.43C60.9024 25.11 60.8124 24.85 60.6324 24.65C60.459 24.4433 60.2124 24.34 59.8924 24.34C59.6057 24.34 59.3524 24.43 59.1324 24.61C58.919 24.7833 58.7524 25.01 58.6324 25.29C58.519 25.57 58.4624 25.8633 58.4624 26.17C58.4624 26.4833 58.539 26.7333 58.6924 26.92C58.8457 27.1 59.079 27.19 59.3924 27.19ZM68.0863 28.09C67.5663 28.09 67.0963 27.9733 66.6763 27.74C66.2563 27.5 65.9263 27.1667 65.6863 26.74C65.4463 26.3067 65.3263 25.8067 65.3263 25.24C65.3263 24.68 65.4496 24.1833 65.6963 23.75C65.943 23.3167 66.2796 22.9833 66.7063 22.75C67.133 22.5167 67.6096 22.4 68.1363 22.4C68.663 22.4 69.1396 22.5167 69.5663 22.75C69.993 22.9833 70.3296 23.3167 70.5763 23.75C70.823 24.1833 70.9463 24.68 70.9463 25.24C70.9463 25.8 70.8196 26.2967 70.5663 26.73C70.313 27.1633 69.9663 27.5 69.5263 27.74C69.093 27.9733 68.613 28.09 68.0863 28.09ZM68.0863 27.1C68.3796 27.1 68.653 27.03 68.9063 26.89C69.1663 26.75 69.3763 26.54 69.5363 26.26C69.6963 25.98 69.7763 25.64 69.7763 25.24C69.7763 24.84 69.6996 24.5033 69.5463 24.23C69.393 23.95 69.1896 23.74 68.9363 23.6C68.683 23.46 68.4096 23.39 68.1163 23.39C67.823 23.39 67.5496 23.46 67.2963 23.6C67.0496 23.74 66.853 23.95 66.7063 24.23C66.5596 24.5033 66.4863 24.84 66.4863 25.24C66.4863 25.8333 66.6363 26.2933 66.9363 26.62C67.243 26.94 67.6263 27.1 68.0863 27.1ZM77.0632 22.49V28H75.9232V27.35C75.7432 27.5767 75.5066 27.7567 75.2132 27.89C74.9266 28.0167 74.6199 28.08 74.2932 28.08C73.8599 28.08 73.4699 27.99 73.1232 27.81C72.7832 27.63 72.5132 27.3633 72.3132 27.01C72.1199 26.6567 72.0232 26.23 72.0232 25.73V22.49H73.1532V25.56C73.1532 26.0533 73.2766 26.4333 73.5232 26.7C73.7699 26.96 74.1066 27.09 74.5332 27.09C74.9599 27.09 75.2966 26.96 75.5432 26.7C75.7966 26.4333 75.9232 26.0533 75.9232 25.56V22.49H77.0632ZM79.7074 23.29C79.874 23.01 80.094 22.7933 80.3674 22.64C80.6474 22.48 80.9774 22.4 81.3574 22.4V23.58H81.0674C80.6207 23.58 80.2807 23.6933 80.0474 23.92C79.8207 24.1467 79.7074 24.54 79.7074 25.1V28H78.5674V22.49H79.7074V23.29ZM84.7953 28.09C84.2753 28.09 83.8053 27.9733 83.3853 27.74C82.9653 27.5 82.6353 27.1667 82.3953 26.74C82.1553 26.3067 82.0353 25.8067 82.0353 25.24C82.0353 24.68 82.1586 24.1833 82.4053 23.75C82.6519 23.3167 82.9886 22.9833 83.4153 22.75C83.8419 22.5167 84.3186 22.4 84.8453 22.4C85.3719 22.4 85.8486 22.5167 86.2753 22.75C86.7019 22.9833 87.0386 23.3167 87.2853 23.75C87.5319 24.1833 87.6553 24.68 87.6553 25.24C87.6553 25.8 87.5286 26.2967 87.2753 26.73C87.0219 27.1633 86.6753 27.5 86.2353 27.74C85.8019 27.9733 85.3219 28.09 84.7953 28.09ZM84.7953 27.1C85.0886 27.1 85.3619 27.03 85.6153 26.89C85.8753 26.75 86.0853 26.54 86.2453 26.26C86.4053 25.98 86.4853 25.64 86.4853 25.24C86.4853 24.84 86.4086 24.5033 86.2553 24.23C86.1019 23.95 85.8986 23.74 85.6453 23.6C85.3919 23.46 85.1186 23.39 84.8253 23.39C84.5319 23.39 84.2586 23.46 84.0053 23.6C83.7586 23.74 83.5619 23.95 83.4153 24.23C83.2686 24.5033 83.1953 24.84 83.1953 25.24C83.1953 25.8333 83.3453 26.2933 83.6453 26.62C83.9519 26.94 84.3353 27.1 84.7953 27.1ZM93.7722 22.49V28H92.6322V27.35C92.4522 27.5767 92.2156 27.7567 91.9222 27.89C91.6356 28.0167 91.3289 28.08 91.0022 28.08C90.5689 28.08 90.1789 27.99 89.8322 27.81C89.4922 27.63 89.2222 27.3633 89.0222 27.01C88.8289 26.6567 88.7322 26.23 88.7322 25.73V22.49H89.8622V25.56C89.8622 26.0533 89.9856 26.4333 90.2322 26.7C90.4789 26.96 90.8156 27.09 91.2422 27.09C91.6689 27.09 92.0056 26.96 92.2522 26.7C92.5056 26.4333 92.6322 26.0533 92.6322 25.56V22.49H93.7722ZM95.8564 21.76C95.6497 21.76 95.4764 21.69 95.3364 21.55C95.1964 21.41 95.1264 21.2367 95.1264 21.03C95.1264 20.8233 95.1964 20.65 95.3364 20.51C95.4764 20.37 95.6497 20.3 95.8564 20.3C96.0564 20.3 96.2264 20.37 96.3664 20.51C96.5064 20.65 96.5764 20.8233 96.5764 21.03C96.5764 21.2367 96.5064 21.41 96.3664 21.55C96.2264 21.69 96.0564 21.76 95.8564 21.76ZM96.4164 22.49V28H95.2764V22.49H96.4164ZM104.583 22.4C105.016 22.4 105.403 22.49 105.743 22.67C106.09 22.85 106.36 23.1167 106.553 23.47C106.753 23.8233 106.853 24.25 106.853 24.75V28H105.723V24.92C105.723 24.4267 105.6 24.05 105.353 23.79C105.106 23.5233 104.77 23.39 104.343 23.39C103.916 23.39 103.576 23.5233 103.323 23.79C103.076 24.05 102.953 24.4267 102.953 24.92V28H101.823V24.92C101.823 24.4267 101.7 24.05 101.453 23.79C101.206 23.5233 100.87 23.39 100.443 23.39C100.016 23.39 99.6764 23.5233 99.4231 23.79C99.1764 24.05 99.0531 24.4267 99.0531 24.92V28H97.9131V22.49H99.0531V23.12C99.2398 22.8933 99.4764 22.7167 99.7631 22.59C100.05 22.4633 100.356 22.4 100.683 22.4C101.123 22.4 101.516 22.4933 101.863 22.68C102.21 22.8667 102.476 23.1367 102.663 23.49C102.83 23.1567 103.09 22.8933 103.443 22.7C103.796 22.5 104.176 22.4 104.583 22.4ZM113.354 25.11C113.354 25.3167 113.34 25.5033 113.314 25.67H109.104C109.137 26.11 109.3 26.4633 109.594 26.73C109.887 26.9967 110.247 27.13 110.674 27.13C111.287 27.13 111.72 26.8733 111.974 26.36H113.204C113.037 26.8667 112.734 27.2833 112.294 27.61C111.86 27.93 111.32 28.09 110.674 28.09C110.147 28.09 109.674 27.9733 109.254 27.74C108.84 27.5 108.514 27.1667 108.274 26.74C108.04 26.3067 107.924 25.8067 107.924 25.24C107.924 24.6733 108.037 24.1767 108.264 23.75C108.497 23.3167 108.82 22.9833 109.234 22.75C109.654 22.5167 110.134 22.4 110.674 22.4C111.194 22.4 111.657 22.5133 112.064 22.74C112.47 22.9667 112.787 23.2867 113.014 23.7C113.24 24.1067 113.354 24.5767 113.354 25.11ZM112.164 24.75C112.157 24.33 112.007 23.9933 111.714 23.74C111.42 23.4867 111.057 23.36 110.624 23.36C110.23 23.36 109.894 23.4867 109.614 23.74C109.334 23.9867 109.167 24.3233 109.114 24.75H112.164ZM114.096 25.22C114.096 24.6667 114.209 24.1767 114.436 23.75C114.669 23.3233 114.982 22.9933 115.376 22.76C115.776 22.52 116.219 22.4 116.706 22.4C117.066 22.4 117.419 22.48 117.766 22.64C118.119 22.7933 118.399 23 118.606 23.26V20.6H119.756V28H118.606V27.17C118.419 27.4367 118.159 27.6567 117.826 27.83C117.499 28.0033 117.122 28.09 116.696 28.09C116.216 28.09 115.776 27.97 115.376 27.73C114.982 27.4833 114.669 27.1433 114.436 26.71C114.209 26.27 114.096 25.7733 114.096 25.22ZM118.606 25.24C118.606 24.86 118.526 24.53 118.366 24.25C118.212 23.97 118.009 23.7567 117.756 23.61C117.502 23.4633 117.229 23.39 116.936 23.39C116.642 23.39 116.369 23.4633 116.116 23.61C115.862 23.75 115.656 23.96 115.496 24.24C115.342 24.5133 115.266 24.84 115.266 25.22C115.266 25.6 115.342 25.9333 115.496 26.22C115.656 26.5067 115.862 26.7267 116.116 26.88C116.376 27.0267 116.649 27.1 116.936 27.1C117.229 27.1 117.502 27.0267 117.756 26.88C118.009 26.7333 118.212 26.52 118.366 26.24C118.526 25.9533 118.606 25.62 118.606 25.24Z" fill="#A3A0A0"/>
</svg>
